<?xml version="1.0" encoding="UTF-8"?>
<svg width="231px" height="42px" viewBox="0 0 231 42" version="1.1" xmlns="http://www.w3.org/2000/svg" xmlns:xlink="http://www.w3.org/1999/xlink">
    <!-- Generator: Sketch 57.1 (83088) - https://sketch.com -->
    <title>Group 11</title>
    <desc>Created with Sketch.</desc>
    <defs>
        <polygon id="path-1" points="0 41 177.109375 41 230.565023 41 230.565023 0 0 0"></polygon>
    </defs>
    <g id="Page-1" stroke="none" stroke-width="1" fill="none" fill-rule="evenodd">
        <g id="news" transform="translate(-339.000000, -3265.000000)">
            <g id="Group-11" transform="translate(339.000000, 3265.000000)">
                <g id="Group-19">
                    <path d="M140.156757,33.7923497 L136.956757,25.8351913 L133.756757,33.7923497 L140.156757,33.7923497 Z M140.93427,35.7149727 L132.978378,35.7149727 L131.248649,40 L129,40 L135.659459,24 L138.339676,24 L145,40 L142.664,40 L140.93427,35.7149727 Z" id="Fill-1" fill="#DCDCDC"></path>
                    <g id="Group-18">
                        <path d="M157.866185,27.9145447 L157.866185,40.0400766 L155.860407,40.0400766 L155.860407,38.3826298 C155.33826,39.0813745 154.7272,39.5175447 153.943543,39.8656085 C153.159015,40.215417 152.373615,40.3017787 151.501917,40.3017787 C150.020902,40.3017787 148.800524,39.8656085 147.928826,39.0813745 C147.057128,38.209034 146.534109,37.1622255 146.534109,35.6783745 L146.534109,27.9145447 L148.625313,27.9145447 L148.625313,35.2422043 C148.625313,36.2017787 148.886822,36.9005234 149.497011,37.5102894 C150.020902,38.034566 150.8926,38.2953957 151.851468,38.2953957 C152.547954,38.2953957 153.245313,38.1209277 153.855502,37.8592255 C154.466562,37.5983957 154.902411,37.1622255 155.163049,36.7260553 C155.5126,36.2017787 155.598898,35.6783745 155.598898,35.0677362 L155.598898,27.8273106 L157.866185,27.8273106 L157.866185,27.9145447 Z" id="Fill-2" fill="#DCDCDC"></path>
                        <path d="M163.532222,37.9464596 C164.40392,38.209034 165.275618,38.3826298 166.234486,38.3826298 C167.106185,38.3826298 167.802671,38.209034 168.413732,37.8592255 C169.02392,37.5102894 169.28543,37.0741191 169.28543,36.5507149 C169.28543,36.1145447 169.110218,35.8537149 168.849581,35.5920128 C168.588071,35.3294383 168.064181,35.2422043 167.542034,35.0677362 L164.315879,34.4570979 C163.096373,34.1953957 162.224675,33.8473319 161.700785,33.3230553 C161.090596,32.8005234 160.829086,32.1026511 160.829086,31.3166723 C160.829086,30.6196723 161.004298,29.9218 161.440147,29.3975234 C161.875996,28.8749915 162.486185,28.4388213 163.269841,28.0890128 C164.055241,27.7409489 165.013237,27.6528426 166.059275,27.6528426 C166.930973,27.6528426 167.890713,27.7409489 168.762411,28.0026511 C169.634109,28.2634809 170.505807,28.6996511 171.203166,29.2230553 L170.069958,30.8805021 C169.546068,30.4443319 168.935879,30.0953957 168.152222,29.8336936 C167.366822,29.5719915 166.583166,29.5719915 165.798637,29.5719915 C164.926939,29.5719915 164.229581,29.7473319 163.70569,30.0953957 C163.096373,30.4443319 162.833992,30.7941404 162.833992,31.3166723 C162.833992,31.6664809 163.008332,32.0145447 163.269841,32.1890128 C163.619392,32.3643532 164.141539,32.5388213 164.839769,32.712417 L167.802671,33.2366936 C169.02392,33.4975234 169.895618,33.8473319 170.417766,34.3698638 C170.941656,34.8932681 171.289464,35.6783745 171.289464,36.4643532 C171.289464,37.2485872 171.028826,37.8592255 170.592977,38.4707362 C170.157128,39.0813745 169.546068,39.5175447 168.762411,39.7792468 C167.977883,40.1273106 167.106185,40.215417 166.059275,40.215417 C164.926939,40.215417 163.88003,40.0400766 162.747694,39.6911404 C161.700785,39.3430766 160.829086,38.9069064 160.1326,38.3826298 L161.264935,36.7260553 C161.962294,37.2485872 162.660524,37.6847574 163.532222,37.9464596" id="Fill-4" fill="#DCDCDC"></path>
                        <path d="M181.22752,37.8595745 L181.22752,39.7787234 C180.703629,40.0404255 179.919972,40.2148936 179.048274,40.2148936 C177.652686,40.2148936 176.60752,39.8659574 175.822991,39.1680851 C175.125633,38.4702128 174.689784,37.5106383 174.689784,36.2021277 L174.689784,29.6595745 L172.597708,29.6595745 L172.597708,27.8276596 L174.689784,27.8276596 L174.689784,24.9489362 L176.780988,23.9893617 L176.780988,27.8276596 L181.05318,27.8276596 L181.05318,29.6595745 L176.780988,29.6595745 L176.780988,35.9404255 C176.780988,36.7255319 176.956199,37.2489362 177.479218,37.6851064 C177.915067,38.0340426 178.524384,38.2957447 179.222614,38.2957447 C179.919972,38.2957447 180.617331,38.2085106 181.22752,37.8595745" id="Fill-6" fill="#DCDCDC"></path>
                        <path d="M190.641685,27.9145447 L190.641685,29.9218 C190.205836,29.8336936 189.769987,29.7473319 189.421308,29.7473319 C188.2881,29.7473319 187.329232,30.0953957 186.544704,30.706034 C185.760175,31.3166723 185.411496,32.1890128 185.411496,33.3230553 L185.411496,40.0400766 L183.319421,40.0400766 L183.319421,27.9145447 L185.324326,27.9145447 L185.324326,29.8336936 C185.760175,29.1358213 186.370364,28.6132894 187.154892,28.2634809 C187.939421,27.9145447 188.723949,27.7409489 189.508477,27.7409489 C189.857157,27.7409489 190.293006,27.8273106 190.641685,27.9145447" id="Fill-8" fill="#DCDCDC"></path>
                        <path d="M199.53318,37.5102894 C200.404878,36.9005234 200.927897,35.8537149 201.015067,34.4570979 L198.399972,34.4570979 C196.743746,34.4570979 195.610538,34.631566 194.82601,35.0677362 C194.128652,35.4175447 193.692803,35.9400766 193.692803,36.6379489 C193.692803,37.2485872 193.954312,37.6847574 194.477331,38.034566 C195.00035,38.3826298 195.697708,38.5570979 196.482237,38.5570979 C197.701742,38.4707362 198.661482,38.1209277 199.53318,37.5102894 M204.675327,38.209034 L204.675327,39.9537149 C204.414689,40.0400766 204.06601,40.1273106 203.542991,40.1273106 C202.931931,40.1273106 202.409784,39.9537149 201.886765,39.6039064 C201.363746,39.2549702 201.102237,38.731566 201.015067,38.1209277 C200.492048,38.8188 199.880988,39.4294383 199.009289,39.7792468 C198.137591,40.1273106 197.265893,40.3017787 196.307897,40.3017787 C195.436199,40.3017787 194.650799,40.1273106 193.954312,39.8656085 C193.256954,39.6039064 192.646765,39.1677362 192.210916,38.6452043 C191.775067,38.1209277 191.599855,37.4230553 191.599855,36.6379489 C191.599855,35.4175447 192.210916,34.4570979 193.343252,33.7592255 C194.477331,33.0613532 196.220727,32.712417 198.399972,32.712417 L201.015067,32.712417 L201.015067,32.5388213 C201.015067,31.5783745 200.666388,30.8805021 200.056199,30.3579702 C199.445138,29.8336936 198.57344,29.5719915 197.528274,29.5719915 C196.830044,29.5719915 196.133557,29.6592255 195.522497,29.9218 C194.82601,30.1835021 194.21495,30.4443319 193.779101,30.8805021 L192.646765,29.3111617 C193.256954,28.7868851 194.041482,28.3507149 194.91318,28.0890128 C195.784878,27.8273106 196.743746,27.6528426 197.701742,27.6528426 C199.35884,27.6528426 200.752686,28.0890128 201.712425,28.9613532 C202.671293,29.8336936 203.194312,30.9677362 203.194312,32.4507149 L203.194312,37.3366936 C203.194312,37.9464596 203.542991,38.2953957 204.15318,38.2953957 C204.32752,38.2953957 204.589029,38.2953957 204.675327,38.209034" id="Fill-10" fill="#DCDCDC"></path>
                        <path d="M208.772831,23.3786362 L208.772831,37.1616149 C208.772831,37.5105511 208.860873,37.8594872 209.121511,38.0339553 C209.38302,38.2084234 209.644529,38.2956574 209.993209,38.2956574 C210.341888,38.2956574 210.604269,38.2084234 210.952077,38.1211894 L210.952077,40.0403383 C210.516228,40.2148064 210.080378,40.3020404 209.55736,40.3020404 C208.685662,40.3020404 207.989175,40.0403383 207.465284,39.6041681 C206.942265,39.0807638 206.681628,38.4701255 206.681628,37.5977851 L206.681628,23.3786362 L208.772831,23.3786362 Z" id="Fill-12" fill="#DCDCDC"></path>
                        <mask id="mask-2" fill="white">
                            <use xlink:href="#path-1"></use>
                        </mask>
                        <g id="Clip-15"></g>
                        <path d="M212.956721,40.0404255 L215.048796,40.0404255 L215.048796,27.9148936 L212.956721,27.9148936 L212.956721,40.0404255 Z M212.956721,25.7340426 C212.695211,25.4723404 212.520872,25.1234043 212.520872,24.7744681 C212.520872,24.4255319 212.695211,24.0765957 212.956721,23.8148936 C213.219102,23.5531915 213.566909,23.4659574 213.91646,23.4659574 C214.352309,23.4659574 214.613819,23.5531915 214.874457,23.8148936 C215.135966,24.0765957 215.310306,24.4255319 215.310306,24.7744681 C215.310306,25.1234043 215.135966,25.4723404 214.874457,25.7340426 C214.613819,25.9957447 214.264268,26.0829787 213.91646,26.0829787 C213.566909,26.1702128 213.219102,25.9957447 212.956721,25.7340426 L212.956721,25.7340426 Z" id="Fill-14" fill="#DCDCDC" mask="url(#mask-2)"></path>
                        <path d="M225.422788,37.5102894 C226.294486,36.9005234 226.817505,35.8537149 226.903803,34.4570979 L224.288709,34.4570979 C222.633354,34.4570979 221.500147,34.631566 220.715618,35.0677362 C219.930218,35.5039064 219.582411,35.9400766 219.582411,36.6379489 C219.582411,37.2485872 219.84392,37.6847574 220.366068,38.034566 C220.889958,38.3826298 221.587317,38.5570979 222.371845,38.5570979 C223.505052,38.4707362 224.55109,38.1209277 225.422788,37.5102894 M230.564935,38.209034 L230.564935,39.9537149 C230.304298,40.0400766 229.954747,40.1273106 229.4326,40.1273106 C228.821539,40.1273106 228.299392,39.9537149 227.775502,39.6039064 C227.253354,39.2549702 226.991845,38.731566 226.903803,38.1209277 C226.381656,38.8188 225.770596,39.4294383 224.898898,39.7792468 C224.0272,40.1273106 223.155502,40.3017787 222.197505,40.3017787 C221.325807,40.3017787 220.540407,40.1273106 219.84392,39.8656085 C219.146562,39.6039064 218.536373,39.1677362 218.100524,38.6452043 C217.664675,38.1209277 217.489464,37.4230553 217.489464,36.6379489 C217.489464,35.4175447 218.100524,34.4570979 219.23286,33.7592255 C220.366068,33.0613532 222.109464,32.712417 224.288709,32.712417 L226.903803,32.712417 L226.903803,32.5388213 C226.903803,31.5783745 226.555996,30.8805021 225.945807,30.3579702 C225.334747,29.8336936 224.463049,29.5719915 223.417011,29.5719915 C222.719652,29.5719915 222.023166,29.6592255 221.412105,29.9218 C220.715618,30.1835021 220.104558,30.4443319 219.668709,30.8805021 L218.536373,29.3111617 C219.146562,28.7868851 219.930218,28.3507149 220.801917,28.0890128 C221.673615,27.8273106 222.633354,27.6528426 223.591351,27.6528426 C225.248449,27.6528426 226.642294,28.0890128 227.602034,28.9613532 C228.560902,29.8336936 229.083049,30.9677362 229.083049,32.4507149 L229.083049,37.3366936 C229.083049,37.9464596 229.4326,38.2953957 230.042788,38.2953957 C230.217128,38.2953957 230.390596,38.2953957 230.564935,38.209034" id="Fill-16" fill="#DCDCDC" mask="url(#mask-2)"></path>
                    </g>
                </g>
                <g id="Group-6" fill="#DCDCDC">
                    <path d="M92.4362611,3.32049235 C92.4362611,3.32049235 89.9689796,4.28008724 87.0611122,7.42057959 C84.1532448,10.5610719 82.4790182,14.0505079 83.7126589,15.0101028 C84.1532448,15.3590464 85.2987684,15.4462823 87.2373466,13.6143284 C88.8234561,12.218554 90.4095656,10.3866001 91.4669719,7.85675908 C92.7887299,4.80350263 92.4362611,3.40772825 92.4362611,3.32049235 L92.4362611,3.32049235 Z M108.121122,8.99082576 C104.948903,7.33334369 102.569738,5.41415392 100.190574,4.19285134 C97.8995271,3.05878465 96.4015348,2.53536926 94.4629565,2.79707696 C94.1104878,2.79707696 93.6699018,2.97154876 93.6699018,2.97154876 C93.6699018,2.97154876 94.6391909,6.19927701 90.7620344,11.6951386 C86.8848779,17.2782361 83.3601901,17.1910002 82.3027838,15.70799 C81.2453774,14.1377438 82.5671353,10.8227796 84.8581824,7.85675908 C87.2373466,4.80350263 91.3788547,2.27366157 91.3788547,2.27366157 C91.3788547,2.27366157 90.0570968,1.48853848 86.7967607,3.32049235 C83.6245417,5.06521032 78.1612757,9.33976936 73.0504784,16.493113 C68.1159155,23.6464567 67.1466264,27.5720722 66.3535717,30.6253286 C65.6486341,33.6785851 66.2654545,37.0807851 69.7901422,37.0807851 C73.2267128,37.0807851 77.2801037,31.8466312 78.4256272,30.0146773 C80.5404399,26.6124773 81.950315,21.3783234 79.0424476,22.0762106 C77.6325725,22.4251542 76.487049,23.9954003 75.7821114,25.4775382 C74.9890567,27.0486568 74.7247051,28.5307947 74.7247051,28.5307947 C74.7247051,28.5307947 73.4910644,28.9669742 71.9049549,30.1891491 C70.3188454,31.4104517 69.2614391,32.5445184 69.2614391,32.5445184 C69.2614391,32.5445184 69.2614391,30.1019132 71.2881345,26.0890619 C73.31483,22.0762106 76.9276349,20.2442567 79.0424476,20.0697849 C80.8929087,19.8953131 83.3601901,21.4655593 81.3334946,27.3103645 C79.3067992,33.1551697 73.2267128,40.1340416 66.7941576,40.2212775 C60.8903056,40.307641 57.0131491,32.8062261 65.2080481,19.8080772 C74.1960019,5.41415392 84.8581824,0.965123088 88.3828702,0.441707696 C91.8194407,-0.0817076959 92.9649642,1.48853848 92.9649642,1.48853848 C92.9649642,1.48853848 95.8728316,0.18 99.5737538,0.441707696 C103.803379,0.703415392 107.063715,3.66943595 111.381458,5.76309751 C110.235934,6.8099283 109.090411,7.94399498 108.121122,8.99082576 L108.121122,8.99082576 Z M118.166482,22.9485695 C118.254599,22.7740977 118.254599,22.6868618 118.254599,22.6868618 C118.254599,22.6868618 118.166482,22.1634465 117.637779,22.0762106 C117.020958,22.0762106 116.139786,22.1634465 113.848739,24.6932875 C111.557692,27.2222562 110.147817,29.4031537 109.002294,31.5840512 C107.680536,33.9402928 107.151832,35.7722466 107.944887,36.2084261 C108.121122,36.3820256 108.47359,36.3820256 108.737942,36.295662 C109.266645,36.2084261 109.795348,35.6850107 110.67652,34.7254159 C111.117106,34.2892364 111.557692,33.5913492 112.086395,32.8062261 C113.584388,30.7116922 117.373427,24.257108 118.166482,22.9485695 L118.166482,22.9485695 Z M94.2867221,25.7401183 C94.6391909,24.7805234 95.1678941,22.7740977 94.1104878,22.0762106 C93.0530814,21.2910875 90.2333312,23.2102772 90.2333312,25.129467 C90.2333312,27.1358927 92.1719095,28.0082517 92.7006127,28.1827235 C92.9649642,28.2699594 93.0530814,28.2699594 93.2293158,28.0082517 C93.2293158,27.8337799 93.8461362,26.6997132 94.2867221,25.7401183 L94.2867221,25.7401183 Z M92.1719095,29.4031537 C92.0837923,29.4031537 91.2026204,28.9669742 90.2333312,28.1827235 C89.2640421,27.3976004 88.8234561,26.5252414 88.8234561,26.4380055 C88.8234561,26.3498972 88.7353389,26.4380055 88.7353389,26.4380055 C88.7353389,26.5252414 88.5591045,26.6124773 87.0611122,28.7933748 C85.5631199,30.9742722 83.2720729,35.423303 85.3868856,36.2084261 C86.7086435,36.7318415 88.9115733,34.3764723 90.145214,32.8925896 C91.2907376,31.4976876 92.2600267,29.6657337 92.3481439,29.5784978 C92.2600267,29.4031537 92.2600267,29.4031537 92.1719095,29.4031537 L92.1719095,29.4031537 Z M115.522966,34.5509441 C114.994263,35.423303 114.289325,37.168021 116.139786,36.0339543 C118.341835,34.7254159 121.603052,29.9274414 121.603052,29.9274414 L123.012927,29.9274414 C123.012927,29.9274414 121.074349,32.8925896 118.607068,35.6850107 C116.316021,38.2148518 113.49627,40.4829852 111.557692,40.2212775 C109.266645,39.9595698 109.971583,36.9935492 109.971583,36.9935492 C109.971583,36.9935492 106.711246,40.4829852 104.420199,40.2212775 C101.336098,39.8714615 102.305387,36.1211902 102.305387,36.1211902 C102.305387,36.1211902 98.8688162,40.307641 96.489652,40.2212775 C92.7887299,39.9595698 93.758019,35.5096666 94.7273081,32.3700466 C95.2560113,30.7116922 95.7847144,29.4031537 95.7847144,29.4031537 C95.7847144,29.4031537 95.4322457,29.4912619 94.6391909,29.5784978 C94.198605,29.6657337 93.4936674,29.6657337 93.4936674,29.6657337 C93.4936674,29.6657337 91.9956751,32.3700466 90.7620344,33.9402928 C89.5283937,35.5977748 84.3294792,41.18 81.2453774,40.0468057 C78.4256272,38.9991025 79.3067992,34.7254159 80.9810259,31.2359799 C83.4483073,26.2635337 90.2333312,19.0229541 94.1104878,19.982549 C98.1638787,20.9421439 94.198605,28.3571953 94.198605,28.3571953 C94.2867221,28.3571953 94.4629565,28.4444312 94.9916597,28.3571953 C95.7847144,28.1827235 96.489652,27.9210158 96.489652,27.9210158 C96.489652,27.9210158 100.543043,19.4591336 105.125137,13.8760361 C109.619114,8.29293857 118.695185,-1.21577438 122.219873,1.05235899 C123.101045,1.57577438 122.660459,3.58220005 121.514935,5.93756931 C120.985351,6.11204111 120.457529,6.19927701 119.928826,6.3737488 C120.72188,4.97797442 121.250584,3.75667184 121.338701,2.97154876 C121.866523,0.0927641014 115.08238,6.11204111 110.235934,12.6547335 C105.389489,19.1974259 102.481621,25.0413588 102.481621,25.0413588 C102.481621,25.0413588 103.45091,24.5188157 104.948903,23.2975131 C106.535012,21.9889747 108.737942,20.0697849 111.117106,17.6271797 C112.703216,15.9696977 114.553677,13.963272 116.316021,11.6079027 C116.844724,11.6079027 117.373427,11.5206668 117.814013,11.4334309 C115.875435,14.0505079 113.760622,16.4058771 112.086395,18.1505951 C110.147817,20.0697849 108.121122,22.1634465 106.270661,23.6464567 C103.362793,26.0890619 101.159863,27.3976004 101.159863,27.3976004 C101.159863,27.3976004 96.930238,35.8594825 99.221285,36.3820256 C100.543043,36.7318415 103.274676,32.6317543 103.274676,32.6317543 C103.274676,32.6317543 106.799364,27.3976004 108.826059,24.9549952 C111.645809,21.727267 114.201208,19.8953131 116.580372,19.8080772 C117.990247,19.8080772 118.871419,21.2910875 118.871419,21.2910875 L119.576357,20.2442567 L123.717865,20.2442567 C123.982217,20.5059644 116.227903,33.5041133 115.522966,34.5509441 L115.522966,34.5509441 Z M127.153554,4.10561544 C124.246568,5.93756931 120.193177,7.68228728 116.316021,7.24610779 C115.346732,8.29293857 114.289325,9.42700526 113.231919,10.7355437 C120.016943,12.0440822 125.920795,7.94399498 129.093014,4.36732313 C131.031592,2.18642567 132,0.18 132,0.18 C132,0.18 130.062303,2.27366157 127.153554,4.10561544 L127.153554,4.10561544 Z M120.281294,37.7786723 L120.898115,37.7786723 C121.074349,37.7786723 121.250584,37.7786723 121.338701,37.8659082 C121.514935,37.9531441 121.603052,38.04038 121.603052,38.3020877 C121.603052,38.4765595 121.514935,38.562923 121.425937,38.6510313 C121.338701,38.6510313 121.250584,38.7382672 121.162466,38.7382672 C121.250584,38.7382672 121.425937,38.8255031 121.425937,38.912739 C121.514935,38.9991025 121.514935,39.0872108 121.514935,39.1744467 L121.514935,39.2616826 L121.514935,39.3489185 L121.514935,39.435282 L121.250584,39.435282 L121.250584,39.3489185 L121.250584,39.2616826 C121.250584,39.0872108 121.250584,38.912739 121.074349,38.912739 C120.985351,38.8255031 120.898115,38.8255031 120.72188,38.8255031 L120.457529,38.8255031 L120.457529,39.3489185 L120.193177,39.3489185 L120.193177,37.7786723 L120.281294,37.7786723 Z M121.250584,38.2148518 C121.250584,38.1267435 121.250584,38.04038 121.162466,37.9531441 C121.074349,37.8659082 120.985351,37.8659082 120.809998,37.8659082 L120.544765,37.8659082 L120.544765,38.4765595 L120.809998,38.4765595 L121.074349,38.4765595 C121.250584,38.4765595 121.250584,38.3893236 121.250584,38.2148518 L121.250584,38.2148518 Z M122.396107,38.562923 C122.396107,38.9991025 122.219873,39.3489185 121.955521,39.6106262 C121.691169,39.8714615 121.338701,40.0468057 120.898115,40.0468057 C120.457529,40.0468057 120.104179,39.8714615 119.840708,39.6106262 C119.576357,39.3489185 119.400122,38.9991025 119.400122,38.562923 C119.400122,38.1267435 119.576357,37.7786723 119.840708,37.5169646 C120.104179,37.2543846 120.457529,37.0807851 120.898115,37.0807851 C121.338701,37.0807851 121.691169,37.2543846 121.955521,37.5169646 C122.219873,37.7786723 122.396107,38.1267435 122.396107,38.562923 L122.396107,38.562923 Z M120.898115,37.2543846 C120.544765,37.2543846 120.281294,37.4297287 120.016943,37.6042005 C119.752591,37.8659082 119.663593,38.1267435 119.663593,38.4765595 C119.663593,38.8255031 119.752591,39.1744467 120.016943,39.435282 C120.281294,39.6978621 120.544765,39.785098 120.898115,39.785098 C121.250584,39.785098 121.603052,39.6978621 121.866523,39.435282 C122.131755,39.1744467 122.219873,38.8255031 122.219873,38.4765595 C122.219873,38.1267435 122.131755,37.8659082 121.866523,37.6042005 C121.603052,37.4297287 121.250584,37.2543846 120.898115,37.2543846 L120.898115,37.2543846 Z M68.7327359,10.5610719 L64.7674622,10.5610719 L62.5645323,14.1377438 L66.529806,14.1377438 L68.7327359,10.5610719 Z M49.9637736,22.9485695 C51.6380003,20.6804362 56.3082115,12.6547335 56.3082115,12.6547335 C56.3082115,12.6547335 56.2200943,12.1313181 55.6913912,12.0440822 C55.0745708,12.0440822 54.0171645,12.218554 51.8142347,14.835631 C49.699422,17.4527079 48.0251953,19.5463695 46.7915546,21.727267 C45.4697967,24.0826362 44.8529763,25.8273542 45.6460311,26.2635337 C45.8222655,26.3498972 46.1747342,26.4380055 46.4390858,26.3498972 C46.967789,26.2635337 47.5846093,25.7401183 48.4657813,24.6932875 C48.9944844,24.3443439 49.4350704,23.7328203 49.9637736,22.9485695 L49.9637736,22.9485695 Z M28.7275298,12.1313181 C27.6701235,11.346195 24.8503733,13.2653848 24.8503733,15.1845746 C24.8503733,17.1910002 27.4057719,17.8016515 27.6701235,17.8016515 C27.6701235,17.8016515 27.9344751,17.8888874 28.1107095,17.6271797 C28.1988267,17.4527079 28.5512954,16.8420566 28.9037642,15.8824618 C29.256233,14.835631 29.7849362,12.9164412 28.7275298,12.1313181 L28.7275298,12.1313181 Z M27.0533031,19.0229541 C26.9651859,19.0229541 25.9077796,18.6740105 24.9384905,18.0633592 C23.8810842,17.4527079 23.4404982,16.4058771 23.4404982,16.4058771 C23.4404982,16.3186412 23.352381,16.4058771 23.352381,16.4058771 C23.352381,16.493113 23.0880294,16.7548207 21.5900371,18.9357182 C20.0920448,21.1166157 17.889115,25.5656465 20.0039276,26.2635337 C21.3256855,26.7860767 23.5286154,24.4315798 24.7622561,22.9485695 C25.9077796,21.5527952 27.2295375,19.3718977 27.2295375,19.2846618 C27.2295375,19.11019 27.1414203,19.11019 27.0533031,19.0229541 L27.0533031,19.0229541 Z M59.3923133,20.3314926 L60.8021884,20.3314926 C60.8021884,20.3314926 53.5765785,30.7116922 49.4350704,30.2755127 C47.1440234,30.0146773 47.8489609,27.2222562 47.8489609,27.2222562 C47.8489609,27.2222562 44.6767419,30.9742722 41.6807573,30.1891491 C39.0372415,29.4912619 40.7114682,25.129467 40.7114682,25.129467 C40.3589994,25.2167029 34.6313818,31.7593953 30.4898737,30.1891491 C26.2602484,28.5307947 28.4631782,23.1230413 29.256233,21.5527952 C29.9611705,20.1570208 30.6661081,18.8484823 30.6661081,18.8484823 C30.6661081,18.8484823 30.0492877,19.0229541 29.6087018,19.11019 C29.1681158,19.1974259 28.5512954,19.2846618 28.5512954,19.2846618 C28.5512954,19.2846618 26.5246,22.5123901 25.2909593,24.1689998 C24.0573185,25.8273542 18.8584041,31.3232158 15.7743023,30.2755127 C12.6902005,29.1423183 13.4832553,24.8677593 15.157482,21.4655593 C17.9772322,15.9696977 24.6741389,9.16529756 28.6394126,10.2121283 C32.6928036,11.2589591 29.3443502,17.8016515 29.3443502,17.8016515 C29.3443502,17.8016515 30.1374049,17.8888874 32.0759832,16.5803489 C34.8957334,14.6611592 38.5085384,9.60147705 42.5619293,10.2121283 C44.4123904,10.473836 46.1747342,12.3930258 43.79557,15.9696977 C43.0025153,17.1037643 41.7688745,18.1505951 40.7995854,17.1037643 C40.182765,16.493113 40.7114682,15.2718105 41.3282886,14.4866874 C42.2094605,13.3526207 43.4431012,13.5270925 43.4431012,13.5270925 C43.4431012,13.5270925 44.0599216,12.0440822 42.4738121,12.0440822 C41.1520542,12.0440822 37.7154836,15.1845746 35.7769053,18.3250669 C34.0145615,21.2038516 31.2829285,26.1762978 34.0145615,27.2222562 C36.4818429,28.1827235 41.2401714,22.6868618 43.354984,19.8080772 C45.5579139,16.9292925 50.4924767,10.2993642 54.6339849,10.0376565 C56.04386,9.95042065 56.9250319,11.2589591 56.9250319,11.2589591 L57.3656179,10.473836 L61.507126,10.473836 C61.507126,10.473836 53.6646957,23.4719849 53.0478754,24.4315798 C52.6072894,25.2167029 51.9023518,26.9614209 53.6646957,26.001826 C55.7795084,25.0413588 59.3923133,20.3314926 59.3923133,20.3314926 L59.3923133,20.3314926 Z M57.1893835,41.18 C54.0171645,38.9991025 50.2281252,38.04038 46.7034374,38.1267435 C43.1787496,38.3020877 41.5926401,40.9191647 41.5926401,40.9191647 C40.0065307,38.1267435 36.8343117,36.4701338 31.987866,36.5573697 C24.0573185,36.5573697 16.3030055,40.2212775 10.1348019,40.2212775 C4.2309499,40.2212775 -0.0867926027,36.5573697 0.00132459128,30.0146773 C0.265676173,18.5867746 10.0466847,8.20570267 17.3604118,3.58220005 C21.5900371,0.877887189 25.1147249,0.0927641014 27.4057719,0.354471797 C29.0799986,0.528943595 31.1066941,2.44813336 29.8730534,5.32691802 C28.0225923,9.51424115 25.3790765,9.16529756 25.4671937,7.15887189 C25.5553108,5.85033341 26.3483656,5.06521032 27.0533031,4.62903083 C27.4938891,4.36732313 28.1988267,4.28008724 28.5512954,4.28008724 C28.9037642,3.93114364 29.1681158,1.66301028 26.1721312,2.44813336 C23.1761466,3.23325645 19.5633417,6.11204111 16.0386539,9.95042065 C12.6020833,13.7015643 7.2269345,20.854908 5.90517659,28.4444312 C5.28835623,31.9338671 5.7289422,38.3020877 14.0119584,38.2148518 C21.061334,38.1267435 31.54728,33.5041133 41.063937,33.5913492 C44.7648591,33.5913492 48.0251953,34.6373076 50.5805939,36.2084261 C53.1359926,37.4297287 56.1319772,39.6978621 57.1893835,41.18 L57.1893835,41.18 Z" id="Fill-1"></path>
                </g>
            </g>
        </g>
    </g>
</svg>