<?xml version="1.0" encoding="UTF-8"?>
<svg width="378px" height="68px" viewBox="0 0 378 68" version="1.1" xmlns="http://www.w3.org/2000/svg" xmlns:xlink="http://www.w3.org/1999/xlink">
    <!-- Generator: Sketch 57.1 (83088) - https://sketch.com -->
    <title>Group 11</title>
    <desc>Created with Sketch.</desc>
    <defs>
        <polygon id="path-1" points="0 67 289.815341 67 377.288219 67 377.288219 0 0 0"></polygon>
    </defs>
    <g id="Page-1" stroke="none" stroke-width="1" fill="none" fill-rule="evenodd">
        <g id="news" transform="translate(-89.000000, -215.000000)">
            <g id="Group-11" transform="translate(89.000000, 214.000000)">
                <g id="Group-19" transform="translate(0.000000, 0.804878)">
                    <path d="M229.34742,55.2216447 L224.111057,42.2184833 L218.874693,55.2216447 L229.34742,55.2216447 Z M230.619715,58.3634919 L217.600983,58.3634919 L214.770516,65.3658537 L211.090909,65.3658537 L221.988206,39.2195122 L226.374015,39.2195122 L237.272727,65.3658537 L233.450182,65.3658537 L230.619715,58.3634919 Z" id="Fill-1" fill="#333333"></path>
                    <g id="Group-18">
                        <path d="M258.326484,45.6164511 L258.326484,65.4313447 L255.044303,65.4313447 L255.044303,62.722834 C254.18988,63.8646851 253.189963,64.5774511 251.907616,65.1462383 C250.623842,65.7178766 249.338642,65.8590043 247.912227,65.8590043 C245.488748,65.8590043 243.491767,65.1462383 242.065352,63.8646851 C240.638937,62.4391532 239.783088,60.7285149 239.783088,58.3036851 L239.783088,45.6164511 L243.205057,45.6164511 L243.205057,57.5909191 C243.205057,59.1590043 243.632982,60.3008553 244.631472,61.2973021 C245.488748,62.1540468 246.915163,62.5802809 248.48422,62.5802809 C249.623925,62.5802809 250.765057,62.2951745 251.763548,61.8675149 C252.763465,61.4412809 253.476672,60.7285149 253.903171,60.0157489 C254.475163,59.1590043 254.616378,58.3036851 254.616378,57.3058128 L254.616378,45.4738979 L258.326484,45.4738979 L258.326484,45.6164511 Z" id="Fill-2" fill="#333333"></path>
                        <path d="M267.598182,62.0100681 C269.024597,62.4391532 270.451012,62.722834 272.020069,62.722834 C273.446484,62.722834 274.586189,62.4391532 275.586106,61.8675149 C276.584597,61.2973021 277.012522,60.5845362 277.012522,59.729217 C277.012522,59.0164511 276.725812,58.590217 276.299314,58.1625574 C275.871389,57.7334723 275.014114,57.5909191 274.159691,57.3058128 L268.880529,56.3079404 C266.884974,55.8802809 265.458559,55.3114936 264.601284,54.4547489 C263.602793,53.6008553 263.174869,52.4604298 263.174869,51.1760255 C263.174869,50.0370255 263.461578,48.8966 264.174786,48.0398553 C264.887993,47.1859617 265.886484,46.4731957 267.168831,45.9015574 C268.454031,45.3327702 270.021661,45.1887915 271.733359,45.1887915 C273.159774,45.1887915 274.730257,45.3327702 276.156672,45.7604298 C277.583088,46.1866638 279.009503,46.8994298 280.150635,47.7547489 L278.296295,50.4632596 C277.43902,49.7504936 276.440529,49.1802809 275.158182,48.7526213 C273.872982,48.3249617 272.590635,48.3249617 271.306861,48.3249617 C269.880446,48.3249617 268.739314,48.6114936 267.882038,49.1802809 C266.884974,49.7504936 266.455623,50.3221319 266.455623,51.1760255 C266.455623,51.7476638 266.740906,52.3164511 267.168831,52.6015574 C267.740823,52.8880894 268.595246,53.1731957 269.737805,53.4568766 L274.586189,54.3136213 C276.584597,54.7398553 278.011012,55.3114936 278.865435,56.1653872 C279.72271,57.0207064 280.29185,58.3036851 280.29185,59.5880894 C280.29185,60.8696426 279.865352,61.8675149 279.152144,62.8668128 C278.438937,63.8646851 277.43902,64.5774511 276.156672,65.0051106 C274.872899,65.5738979 273.446484,65.7178766 271.733359,65.7178766 C269.880446,65.7178766 268.167322,65.4313447 266.314408,64.8611319 C264.601284,64.2923447 263.174869,63.5795787 262.035163,62.722834 L263.888076,60.0157489 C265.029208,60.8696426 266.171767,61.5824085 267.598182,62.0100681" id="Fill-4" fill="#333333"></path>
                        <path d="M296.554123,61.8680851 L296.554123,65.0042553 C295.696848,65.4319149 294.4145,65.7170213 292.988085,65.7170213 C290.704395,65.7170213 288.994123,65.1468085 287.710349,64.006383 C286.569217,62.8659574 285.85601,61.2978723 285.85601,59.1595745 L285.85601,48.4680851 L282.432614,48.4680851 L282.432614,45.4744681 L285.85601,45.4744681 L285.85601,40.7702128 L289.27798,39.2021277 L289.27798,45.4744681 L296.26884,45.4744681 L296.26884,48.4680851 L289.27798,48.4680851 L289.27798,58.7319149 C289.27798,60.0148936 289.564689,60.8702128 290.420538,61.5829787 C291.133746,62.1531915 292.13081,62.5808511 293.273368,62.5808511 C294.4145,62.5808511 295.555632,62.4382979 296.554123,61.8680851" id="Fill-6" fill="#333333"></path>
                        <path d="M311.959121,45.6164511 L311.959121,48.8966 C311.245913,48.7526213 310.532706,48.6114936 309.96214,48.6114936 C308.1078,48.6114936 306.538743,49.1802809 305.25497,50.1781532 C303.971196,51.1760255 303.40063,52.6015574 303.40063,54.4547489 L303.40063,65.4313447 L299.977234,65.4313447 L299.977234,45.6164511 L303.257989,45.6164511 L303.257989,48.7526213 C303.971196,47.6121957 304.969687,46.7583021 306.25346,46.1866638 C307.537234,45.6164511 308.821008,45.3327702 310.104781,45.3327702 C310.675347,45.3327702 311.388555,45.4738979 311.959121,45.6164511" id="Fill-8" fill="#333333"></path>
                        <path d="M326.50884,61.2973021 C327.935255,60.3008553 328.791104,58.590217 328.933746,56.3079404 L324.6545,56.3079404 C321.944312,56.3079404 320.089972,56.5930468 318.806198,57.3058128 C317.665066,57.8774511 316.951859,58.7313447 316.951859,59.8717702 C316.951859,60.8696426 317.379783,61.5824085 318.235632,62.1540468 C319.091482,62.722834 320.232614,63.0079404 321.516387,63.0079404 C323.511942,62.8668128 325.082425,62.2951745 326.50884,61.2973021 M334.923263,62.4391532 L334.923263,65.290217 C334.496765,65.4313447 333.926198,65.5738979 333.070349,65.5738979 C332.070432,65.5738979 331.21601,65.290217 330.360161,64.7185787 C329.504312,64.148366 329.076387,63.2930468 328.933746,62.2951745 C328.077897,63.4356 327.07798,64.4334723 325.651565,65.0051106 C324.225149,65.5738979 322.798734,65.8590043 321.231104,65.8590043 C319.804689,65.8590043 318.519489,65.5738979 317.379783,65.1462383 C316.238651,64.7185787 315.240161,64.0058128 314.526953,63.1519191 C313.813746,62.2951745 313.527036,61.1547489 313.527036,59.8717702 C313.527036,57.8774511 314.526953,56.3079404 316.379866,55.1675149 C318.235632,54.0270894 321.088463,53.4568766 324.6545,53.4568766 L328.933746,53.4568766 L328.933746,53.1731957 C328.933746,51.6036851 328.36318,50.4632596 327.364689,49.609366 C326.364772,48.7526213 324.938357,48.3249617 323.228085,48.3249617 C322.085527,48.3249617 320.945821,48.4675149 319.945904,48.8966 C318.806198,49.3242596 317.806282,49.7504936 317.093074,50.4632596 L315.240161,47.8987277 C316.238651,47.041983 317.522425,46.329217 318.94884,45.9015574 C320.375255,45.4738979 321.944312,45.1887915 323.511942,45.1887915 C326.223557,45.1887915 328.504395,45.9015574 330.074878,47.3270894 C331.643934,48.7526213 332.499783,50.6058128 332.499783,53.029217 L332.499783,61.0136213 C332.499783,62.0100681 333.070349,62.5802809 334.06884,62.5802809 C334.354123,62.5802809 334.782048,62.5802809 334.923263,62.4391532" id="Fill-10" fill="#333333"></path>
                        <path d="M341.628269,38.2041128 L341.628269,60.727517 C341.628269,61.2977298 341.772337,61.8679426 342.198835,62.1530489 C342.62676,62.4381553 343.054685,62.5807085 343.625251,62.5807085 C344.195817,62.5807085 344.625168,62.4381553 345.194307,62.2956021 L345.194307,65.4317723 C344.4811,65.7168787 343.767892,65.8594319 342.912043,65.8594319 C341.485628,65.8594319 340.345922,65.4317723 339.488647,64.7190064 C338.632798,63.8636872 338.2063,62.8658149 338.2063,61.440283 L338.2063,38.2041128 L341.628269,38.2041128 Z" id="Fill-12" fill="#333333"></path>
                        <mask id="mask-2" fill="white">
                            <use xlink:href="#path-1"></use>
                        </mask>
                        <g id="Clip-15"></g>
                        <path d="M348.474634,65.4319149 L351.89803,65.4319149 L351.89803,45.6170213 L348.474634,45.6170213 L348.474634,65.4319149 Z M348.474634,42.0531915 C348.046709,41.6255319 347.761426,41.0553191 347.761426,40.4851064 C347.761426,39.9148936 348.046709,39.3446809 348.474634,38.9170213 C348.903985,38.4893617 349.473125,38.3468085 350.045117,38.3468085 C350.758325,38.3468085 351.186249,38.4893617 351.612747,38.9170213 C352.040672,39.3446809 352.325955,39.9148936 352.325955,40.4851064 C352.325955,41.0553191 352.040672,41.6255319 351.612747,42.0531915 C351.186249,42.4808511 350.614257,42.6234043 350.045117,42.6234043 C349.473125,42.7659574 348.903985,42.4808511 348.474634,42.0531915 L348.474634,42.0531915 Z" id="Fill-14" fill="#333333" mask="url(#mask-2)"></path>
                        <path d="M368.873654,61.2973021 C370.300069,60.3008553 371.155918,58.590217 371.297133,56.3079404 L367.017888,56.3079404 C364.309125,56.3079404 362.454786,56.5930468 361.171012,57.3058128 C359.885812,58.0185787 359.316672,58.7313447 359.316672,59.8717702 C359.316672,60.8696426 359.744597,61.5824085 360.59902,62.1540468 C361.456295,62.722834 362.597427,63.0079404 363.881201,63.0079404 C365.73554,62.8668128 367.447238,62.2951745 368.873654,61.2973021 M377.288076,62.4391532 L377.288076,65.290217 C376.861578,65.4313447 376.289586,65.5738979 375.435163,65.5738979 C374.435246,65.5738979 373.580823,65.290217 372.723548,64.7185787 C371.869125,64.148366 371.441201,63.2930468 371.297133,62.2951745 C370.44271,63.4356 369.442793,64.4334723 368.016378,65.0051106 C366.589963,65.5738979 365.163548,65.8590043 363.595918,65.8590043 C362.169503,65.8590043 360.884303,65.5738979 359.744597,65.1462383 C358.603465,64.7185787 357.604974,64.0058128 356.891767,63.1519191 C356.178559,62.2951745 355.89185,61.1547489 355.89185,59.8717702 C355.89185,57.8774511 356.891767,56.3079404 358.74468,55.1675149 C360.59902,54.0270894 363.45185,53.4568766 367.017888,53.4568766 L371.297133,53.4568766 L371.297133,53.1731957 C371.297133,51.6036851 370.727993,50.4632596 369.729503,49.609366 C368.729586,48.7526213 367.303171,48.3249617 365.591472,48.3249617 C364.45034,48.3249617 363.310635,48.4675149 362.310718,48.8966 C361.171012,49.3242596 360.171095,49.7504936 359.457888,50.4632596 L357.604974,47.8987277 C358.603465,47.041983 359.885812,46.329217 361.312227,45.9015574 C362.738642,45.4738979 364.309125,45.1887915 365.876755,45.1887915 C368.588371,45.1887915 370.869208,45.9015574 372.439691,47.3270894 C374.008748,48.7526213 374.863171,50.6058128 374.863171,53.029217 L374.863171,61.0136213 C374.863171,62.0100681 375.435163,62.5802809 376.433654,62.5802809 C376.718937,62.5802809 377.002793,62.5802809 377.288076,62.4391532" id="Fill-16" fill="#333333" mask="url(#mask-2)"></path>
                    </g>
                </g>
                <g id="Group-6" transform="translate(0.000000, 0.804878)" fill="#333333">
                    <path d="M151.259336,5.45749031 C151.259336,5.45749031 147.221967,7.03465997 142.463638,12.1963061 C137.70531,17.3579523 134.965666,23.0931147 136.984351,24.6702843 C137.70531,25.2438006 139.579803,25.3871796 142.752022,22.3762194 C145.347474,20.0821544 147.942926,17.0711942 149.673227,12.9132014 C151.836103,7.89493433 151.259336,5.60086937 151.259336,5.45749031 L151.259336,5.45749031 Z M176.925472,14.7771292 C171.734568,12.0529271 167.84139,8.89858775 163.948212,6.89128091 C160.199226,5.02735313 157.747966,4.16707877 154.575747,4.59721595 C153.99898,4.59721595 153.278021,4.88397407 153.278021,4.88397407 C153.278021,4.88397407 154.864131,10.1889993 148.519693,19.2218801 C142.175255,28.3981399 136.407584,28.2547608 134.677283,25.8173168 C132.946981,23.2364937 135.109858,17.7880895 138.858844,12.9132014 C142.752022,7.89493433 149.529035,3.73694159 149.529035,3.73694159 C149.529035,3.73694159 147.366158,2.44653006 142.031063,5.45749031 C136.840159,8.32507151 127.900269,15.3506455 119.537146,27.1077284 C111.462407,38.8648113 109.876298,45.316869 108.578572,50.3351361 C107.425038,55.3534032 108.43438,60.9451865 114.202051,60.9451865 C119.82553,60.9451865 126.458352,52.3424429 128.332845,49.3314827 C131.793447,43.7396993 134.100515,35.1369557 129.342187,36.2839882 C127.035119,36.8575044 125.160626,39.4383275 124.007091,41.8743378 C122.709365,44.4565946 122.27679,46.8926048 122.27679,46.8926048 C122.27679,46.8926048 120.258105,47.6095001 117.662653,49.6182408 C115.067202,51.6255476 113.3369,53.4894754 113.3369,53.4894754 C113.3369,53.4894754 113.3369,49.4748617 116.653311,42.879425 C119.969722,36.2839882 125.881584,33.2730279 129.342187,32.9862698 C132.370214,32.6995117 136.407584,35.2803348 133.091173,44.8867318 C129.774762,54.4931288 119.82553,65.9634536 109.299531,66.1068327 C99.6386819,66.2487779 93.294244,53.9196126 106.704079,32.5561326 C121.41164,8.89858775 138.858844,1.5862557 144.626515,0.725981336 C150.249994,-0.134293024 152.124487,2.44653006 152.124487,2.44653006 C152.124487,2.44653006 156.882815,0.295844156 162.93887,0.725981336 C169.860075,1.15611852 175.19517,6.03100655 182.260567,9.47210399 C180.386074,11.1926527 178.511581,13.0565805 176.925472,14.7771292 L176.925472,14.7771292 Z M193.363334,37.7177788 C193.507525,37.4310207 193.507525,37.2876416 193.507525,37.2876416 C193.507525,37.2876416 193.363334,36.4273673 192.498183,36.2839882 C191.488841,36.2839882 190.046923,36.4273673 186.297937,40.58536 C182.548951,44.741919 180.241882,48.3263954 178.367389,51.9108719 C176.204513,55.7835404 175.339362,58.7945006 176.637088,59.5113959 C176.925472,59.7967202 177.502239,59.7967202 177.934814,59.654775 C178.799965,59.5113959 179.665115,58.6511216 181.107033,57.0739519 C181.827992,56.3570566 182.548951,55.2100241 183.414101,53.9196126 C185.865362,50.4770813 192.065608,39.8684647 193.363334,37.7177788 L193.363334,37.7177788 Z M154.287364,42.3059087 C154.864131,40.7287391 155.729281,37.4310207 153.99898,36.2839882 C152.268679,34.9935767 147.654542,38.147916 147.654542,41.3022553 C147.654542,44.5999737 150.826761,46.0337643 151.691912,46.3205224 C152.124487,46.4639015 152.268679,46.4639015 152.557062,46.0337643 C152.557062,45.7470062 153.566405,43.8830784 154.287364,42.3059087 L154.287364,42.3059087 Z M150.826761,48.3263954 C150.682569,48.3263954 149.240651,47.6095001 147.654542,46.3205224 C146.068433,45.0301109 145.347474,43.5963203 145.347474,43.4529412 C145.347474,43.3081284 145.203282,43.4529412 145.203282,43.4529412 C145.203282,43.5963203 144.914898,43.7396993 142.463638,47.3241758 C140.012378,50.9086523 136.263392,58.2209844 139.723995,59.5113959 C141.886871,60.3716703 145.491665,56.5004357 147.51035,54.0615578 C149.384843,51.7689267 150.970953,48.7579664 151.115145,48.6145874 C150.970953,48.3263954 150.970953,48.3263954 150.826761,48.3263954 L150.826761,48.3263954 Z M189.037581,56.7871938 C188.17243,58.2209844 187.018896,61.0885656 190.046923,59.2246378 C193.650275,57.0739519 198.986813,49.1881036 198.986813,49.1881036 L201.293881,49.1881036 C201.293881,49.1881036 198.121662,54.0615578 194.084293,58.6511216 C190.335307,62.8091143 185.72117,66.5369699 182.548951,66.1068327 C178.799965,65.6766955 179.953499,60.8018075 179.953499,60.8018075 C179.953499,60.8018075 174.618403,66.5369699 170.869417,66.1068327 C165.822705,65.5318826 167.408815,59.3680169 167.408815,59.3680169 C167.408815,59.3680169 161.785336,66.2487779 157.892158,66.1068327 C151.836103,65.6766955 153.422213,58.3629296 155.008322,53.2027173 C155.873473,50.4770813 156.738624,48.3263954 156.738624,48.3263954 C156.738624,48.3263954 156.161857,48.4712083 154.864131,48.6145874 C154.143172,48.7579664 152.989638,48.7579664 152.989638,48.7579664 C152.989638,48.7579664 150.538377,53.2027173 148.519693,55.7835404 C146.501008,58.5077425 137.993693,67.6825685 132.946981,65.8200746 C128.332845,64.098092 129.774762,57.0739519 132.514406,51.3387895 C136.551776,43.1661831 147.654542,31.2657211 153.99898,32.8428908 C160.631801,34.4200604 154.143172,46.6072805 154.143172,46.6072805 C154.287364,46.6072805 154.575747,46.7506596 155.440898,46.6072805 C156.738624,46.3205224 157.892158,45.8903852 157.892158,45.8903852 C157.892158,45.8903852 164.524979,31.9826164 172.022951,22.8063566 C179.376732,13.6300967 194.228484,-1.9982208 199.996155,1.72963476 C201.438073,2.58990912 200.717114,5.88762749 198.842621,9.75886211 C197.976029,10.0456202 197.11232,10.1889993 196.247169,10.4757574 C197.544895,8.18169245 198.410046,6.17438561 198.554238,4.88397407 C199.417946,0.152465096 188.316622,10.0456202 180.386074,20.7990497 C172.455527,31.5524792 167.697198,41.1574425 167.697198,41.1574425 C167.697198,41.1574425 169.283308,40.2986019 171.734568,38.291295 C174.33002,36.1406091 177.934814,32.9862698 181.827992,28.9716561 C184.423444,26.247454 187.451471,22.9497356 190.335307,19.078501 C191.200457,19.078501 192.065608,18.9351219 192.786567,18.7917429 C189.614348,23.0931147 186.153745,26.9643493 183.414101,29.8319305 C180.241882,32.9862698 176.925472,36.4273673 173.897445,38.8648113 C169.139116,42.879425 165.534322,45.0301109 165.534322,45.0301109 C165.534322,45.0301109 158.613117,58.9378797 162.362103,59.7967202 C164.524979,60.3716703 168.994924,53.6328545 168.994924,53.6328545 C168.994924,53.6328545 174.762595,45.0301109 178.079006,41.0154972 C182.693143,35.710472 186.874704,32.6995117 190.767882,32.5561326 C193.07495,32.5561326 194.516868,34.9935767 194.516868,34.9935767 L195.670402,33.2730279 L202.447415,33.2730279 C202.879991,33.7031651 190.191115,55.0666451 189.037581,56.7871938 L189.037581,56.7871938 Z M208.069453,6.74790185 C203.312566,9.75886211 196.679744,12.6264433 190.335307,11.909548 C188.749197,13.6300967 187.018896,15.4940245 185.288594,17.6447104 C196.391361,19.7953963 206.05221,13.0565805 211.243113,7.17803903 C214.415332,3.59356253 216,0.295844156 216,0.295844156 C216,0.295844156 212.829223,3.73694159 208.069453,6.74790185 L208.069453,6.74790185 Z M196.823936,62.092219 L197.833279,62.092219 C198.121662,62.092219 198.410046,62.092219 198.554238,62.2355981 C198.842621,62.3789771 198.986813,62.5223562 198.986813,62.9524934 C198.986813,63.2392515 198.842621,63.3811967 198.696987,63.5260096 C198.554238,63.5260096 198.410046,63.6693887 198.265854,63.6693887 C198.410046,63.6693887 198.696987,63.8127677 198.696987,63.9561468 C198.842621,64.098092 198.842621,64.2429049 198.842621,64.386284 L198.842621,64.529663 L198.842621,64.6730421 L198.842621,64.8149873 L198.410046,64.8149873 L198.410046,64.6730421 L198.410046,64.529663 C198.410046,64.2429049 198.410046,63.9561468 198.121662,63.9561468 C197.976029,63.8127677 197.833279,63.8127677 197.544895,63.8127677 L197.11232,63.8127677 L197.11232,64.6730421 L196.679744,64.6730421 L196.679744,62.092219 L196.823936,62.092219 Z M198.410046,62.8091143 C198.410046,62.6643014 198.410046,62.5223562 198.265854,62.3789771 C198.121662,62.2355981 197.976029,62.2355981 197.689087,62.2355981 L197.25507,62.2355981 L197.25507,63.2392515 L197.689087,63.2392515 L198.121662,63.2392515 C198.410046,63.2392515 198.410046,63.0958724 198.410046,62.8091143 L198.410046,62.8091143 Z M200.284539,63.3811967 C200.284539,64.098092 199.996155,64.6730421 199.56358,65.1031793 C199.131005,65.5318826 198.554238,65.8200746 197.833279,65.8200746 C197.11232,65.8200746 196.534111,65.5318826 196.102977,65.1031793 C195.670402,64.6730421 195.382019,64.098092 195.382019,63.3811967 C195.382019,62.6643014 195.670402,62.092219 196.102977,61.6620818 C196.534111,61.2305108 197.11232,60.9451865 197.833279,60.9451865 C198.554238,60.9451865 199.131005,61.2305108 199.56358,61.6620818 C199.996155,62.092219 200.284539,62.6643014 200.284539,63.3811967 L200.284539,63.3811967 Z M197.833279,61.2305108 C197.25507,61.2305108 196.823936,61.5187028 196.391361,61.8054609 C195.958786,62.2355981 195.813152,62.6643014 195.813152,63.2392515 C195.813152,63.8127677 195.958786,64.386284 196.391361,64.8149873 C196.823936,65.2465583 197.25507,65.3899374 197.833279,65.3899374 C198.410046,65.3899374 198.986813,65.2465583 199.417946,64.8149873 C199.851963,64.386284 199.996155,63.8127677 199.996155,63.2392515 C199.996155,62.6643014 199.851963,62.2355981 199.417946,61.8054609 C198.986813,61.5187028 198.410046,61.2305108 197.833279,61.2305108 L197.833279,61.2305108 Z M112.47175,17.3579523 L105.98312,17.3579523 L102.378326,23.2364937 L108.866955,23.2364937 L112.47175,17.3579523 Z M81.7589022,37.7177788 C84.4985459,33.9899232 92.1407098,20.7990497 92.1407098,20.7990497 C92.1407098,20.7990497 91.996518,19.9387754 91.1313674,19.7953963 C90.122025,19.7953963 88.3917237,20.0821544 84.7869294,24.3835262 C81.3263269,28.684898 78.5866832,32.1259955 76.5679984,35.710472 C74.4051218,39.5817066 73.3957794,42.4492878 74.6935054,43.1661831 C74.9818889,43.3081284 75.558656,43.4529412 75.9912313,43.3081284 C76.856382,43.1661831 77.8657244,42.3059087 79.3076421,40.58536 C80.1727927,40.0118438 80.8937516,39.0067566 81.7589022,37.7177788 L81.7589022,37.7177788 Z M47.0086852,19.9387754 C45.2783839,18.6483638 40.6642472,21.8027031 40.6642472,24.9570425 C40.6642472,28.2547608 44.8458086,29.2584143 45.2783839,29.2584143 C45.2783839,29.2584143 45.7109592,29.4017933 45.9993428,28.9716561 C46.1435345,28.684898 46.7203016,27.6812446 47.2970687,26.1040749 C47.8738358,24.3835262 48.7389864,21.2291869 47.0086852,19.9387754 L47.0086852,19.9387754 Z M44.2690415,31.2657211 C44.1248497,31.2657211 42.3945485,30.6922049 40.808439,29.6885514 C39.0781377,28.684898 38.3571789,26.9643493 38.3571789,26.9643493 C38.3571789,26.8209702 38.2129871,26.9643493 38.2129871,26.9643493 C38.2129871,27.1077284 37.7804118,27.5378655 35.3291516,31.122342 C32.8778915,34.7068185 29.2730972,42.0191506 32.7336997,43.1661831 C34.8965763,44.0250237 38.5013706,40.1552228 40.5200554,37.7177788 C42.3945485,35.4237138 44.5574251,31.8392373 44.5574251,31.6958583 C44.5574251,31.4091002 44.4132333,31.4091002 44.2690415,31.2657211 L44.2690415,31.2657211 Z M97.1874218,33.416407 L99.4944902,33.416407 C99.4944902,33.416407 87.6707649,50.4770813 80.8937516,49.760186 C77.1447655,49.3314827 78.2982997,44.741919 78.2982997,44.741919 C78.2982997,44.741919 73.1073959,50.9086523 68.2048757,49.6182408 C63.8791225,48.4712083 66.6187662,41.3022553 66.6187662,41.3022553 C66.0419991,41.4456344 56.6695339,52.1990639 49.8925206,49.6182408 C42.9713156,46.8926048 46.5761099,38.0045369 47.8738358,35.4237138 C49.02737,33.1296489 50.1809042,30.978963 50.1809042,30.978963 C50.1809042,30.978963 49.1715618,31.2657211 48.4506029,31.4091002 C47.729644,31.5524792 46.7203016,31.6958583 46.7203016,31.6958583 C46.7203016,31.6958583 43.4038909,37.0008835 41.3852061,39.7236519 C39.3665213,42.4492878 30.8592067,51.4821686 25.8124947,49.760186 C20.7657827,47.8976921 22.0635086,40.8721181 24.8031523,35.2803348 C29.417289,26.247454 40.3758637,15.0638873 46.8644934,16.7844361 C53.4973149,18.5049848 48.0180276,29.2584143 48.0180276,29.2584143 C48.0180276,29.2584143 49.3157535,29.4017933 52.4879725,27.2511074 C57.1021092,24.0967681 63.0139719,15.7807826 69.6467934,16.7844361 C72.6748206,17.2145732 75.558656,20.3689125 71.6654782,26.247454 C70.3677522,28.1113818 68.3490674,29.8319305 66.7629579,28.1113818 C65.7536155,27.1077284 66.6187662,25.1004215 67.6281086,23.81001 C69.0700263,21.9460822 71.0887111,22.2328403 71.0887111,22.2328403 C71.0887111,22.2328403 72.0980535,19.7953963 69.5026016,19.7953963 C67.339725,19.7953963 61.7162459,24.9570425 58.5440269,30.1186886 C55.6601915,34.8501976 51.1902466,43.022804 55.6601915,44.741919 C59.6975611,46.3205224 67.4839168,37.2876416 70.9445193,32.5561326 C74.5493136,27.8246237 82.6240528,16.9278151 89.4010661,16.4976779 C91.7081345,16.3542989 93.1500522,18.5049848 93.1500522,18.5049848 L93.8710111,17.2145732 L100.648024,17.2145732 C100.648024,17.2145732 87.8149566,38.5780532 86.8056142,40.1552228 C86.0846554,41.4456344 84.9311212,44.3132156 87.8149566,42.7360459 C91.2755592,41.1574425 97.1874218,33.416407 97.1874218,33.416407 L97.1874218,33.416407 Z M93.5826275,67.6825685 C88.3917237,64.098092 82.1914775,62.5223562 76.4238067,62.6643014 C70.6561358,62.9524934 68.0606839,67.2538652 68.0606839,67.2538652 C65.465232,62.6643014 60.2743282,59.9415331 52.3437807,60.0849122 C39.3665213,60.0849122 26.6776453,66.1068327 16.5842213,66.1068327 C6.92337257,66.1068327 -0.142024259,60.0849122 0.00216751301,49.3314827 C0.434742829,30.5488258 16.4400295,13.4867177 28.4079466,5.88762749 C35.3291516,1.44287664 41.0968225,0.152465096 44.8458086,0.582602276 C47.5854523,0.869360396 50.901863,4.02369971 48.8831782,8.75520869 C45.855151,15.6374036 41.5293978,15.0638873 41.6735896,11.766169 C41.8177814,9.61548305 43.1155073,8.32507151 44.2690415,7.60817621 C44.9900004,7.17803903 46.1435345,7.03465997 46.7203016,7.03465997 C47.2970687,6.46114373 47.729644,2.73328818 42.8271238,4.02369971 C37.9246035,5.31411125 32.0127409,10.0456202 26.24507,16.3542989 C20.6215909,22.5195984 11.8258928,34.2766814 9.66301623,46.7506596 C8.65367383,52.485822 9.37463269,62.9524934 22.9286593,62.8091143 C34.464001,62.6643014 51.6228219,55.0666451 67.1955332,55.2100241 C73.2515877,55.2100241 78.5866832,56.929139 82.7682446,59.5113959 C86.949806,61.5187028 91.8523263,65.2465583 93.5826275,67.6825685 L93.5826275,67.6825685 Z" id="Fill-1"></path>
                </g>
            </g>
        </g>
    </g>
</svg>